<svg viewBox="63.416 84.248 1073.165 131.503" fill="none" xmlns="http://www.w3.org/2000/svg">
<g clip-path="url(#clip0_7440_10710)">
<path d="M394.142 94.7695H388.622V205.23H394.142V94.7695Z" fill="#2B2B28"></path>
<path d="M505.292 143.91H493.202V162.26C493.202 165.08 493.822 167.02 495.052 168.17C496.292 169.32 498.402 169.85 501.232 169.85L504.492 169.76V177.44C502.462 177.97 500.522 178.23 498.672 178.23C494.262 178.23 490.732 176.99 487.992 174.35C485.252 171.71 483.932 168.09 483.932 163.41V143.91H476.432V136.23H483.842V122.38H493.192V136.23H505.282V143.91H505.292Z" fill="#2B2B28"></path>
<path d="M550.322 160.32H518.562C519.092 163.5 520.502 165.97 522.622 167.73C524.742 169.49 527.302 170.38 530.302 170.38C535.152 170.38 538.512 168.7 540.272 165.17H549.362C548.122 169.32 545.742 172.58 542.302 174.96C538.772 177.34 534.802 178.49 530.392 178.49C526.332 178.49 522.632 177.61 519.452 175.75C516.272 173.99 513.712 171.43 511.952 168.16C510.192 164.9 509.302 161.19 509.302 156.95C509.302 152.71 510.182 149.1 511.952 145.83C513.712 142.57 516.272 140.01 519.452 138.15C522.632 136.3 526.242 135.33 530.302 135.33C534.012 135.33 537.362 136.3 540.452 138.15C543.542 140.09 546.012 142.65 547.772 145.91C549.532 149.26 550.422 152.88 550.422 156.94C550.422 158.35 550.332 159.41 550.332 160.29L550.322 160.32ZM522.612 146.12C520.492 147.88 519.172 150.27 518.552 153.27H541.232C540.882 150.62 539.732 148.33 537.702 146.39C535.582 144.45 533.112 143.48 530.292 143.48C527.292 143.48 524.732 144.36 522.612 146.13V146.12Z" fill="#2B2B28"></path>
<path d="M565.092 175.76C561.832 174 559.272 171.44 557.412 168.08C555.562 164.82 554.672 161.11 554.672 156.96C554.672 152.81 555.552 149.2 557.412 145.84C559.262 142.58 561.822 140.02 565.092 138.16C568.352 136.31 572.062 135.34 576.122 135.34C581.242 135.34 585.562 136.84 589.182 139.66C592.802 142.57 595.092 146.28 596.062 150.69H586.622C585.742 148.57 584.332 146.81 582.562 145.57C580.802 144.33 578.682 143.72 576.212 143.72C572.682 143.72 569.682 144.96 567.392 147.43C565.102 149.9 563.952 153.08 563.952 156.96C563.952 160.84 565.102 164.02 567.392 166.49C569.682 168.96 572.682 170.2 576.212 170.2C578.592 170.2 580.712 169.58 582.472 168.35C584.232 167.11 585.652 165.44 586.622 163.14H596.062C595.092 167.73 592.802 171.43 589.182 174.26C585.562 177.08 581.242 178.5 576.122 178.5C572.062 178.5 568.362 177.62 565.092 175.76Z" fill="#2B2B28"></path>
<path d="M634.122 137.38C636.412 138.7 638.352 140.73 639.772 143.38C641.182 146.03 641.892 149.29 641.892 153.09V177.62H632.542V154.77C632.542 151.06 631.662 148.33 629.892 146.48C628.132 144.72 626.012 143.74 623.542 143.74C621.782 143.74 620.192 144.27 618.602 145.24C617.012 146.21 615.782 147.62 614.812 149.39C613.842 151.15 613.402 153.18 613.402 155.48V177.63H604.142V117.53H613.402V142.24C614.812 139.95 616.662 138.27 618.962 137.12C621.252 135.97 623.642 135.36 626.282 135.36C629.102 135.36 631.752 136.07 634.132 137.39L634.122 137.38Z" fill="#2B2B28"></path>
<path d="M671.172 153.53C671.172 148.06 672.672 143.74 675.852 140.38C678.942 137.03 683.172 135.35 688.562 135.35C691.032 135.35 693.242 135.79 695.182 136.67C697.122 137.55 698.622 138.61 699.772 139.76C700.922 140.91 701.712 141.97 702.152 142.85H702.332C702.682 141.97 703.392 141 704.542 139.76C705.692 138.61 707.192 137.55 709.132 136.67C711.072 135.79 713.282 135.35 715.842 135.35C721.222 135.35 725.462 137.03 728.552 140.38C731.642 143.73 733.232 148.06 733.232 153.53V177.62H723.972V154.24C723.972 150.98 723.182 148.42 721.762 146.56C720.352 144.8 718.232 143.82 715.412 143.82C712.592 143.82 710.382 144.79 708.972 146.56C707.562 148.41 706.852 150.97 706.852 154.32V177.7H697.592V154.32C697.592 150.97 696.802 148.41 695.382 146.56C693.972 144.8 691.852 143.82 689.032 143.82C686.212 143.82 684.002 144.79 682.592 146.56C681.182 148.41 680.472 150.97 680.472 154.24V177.62H671.212V153.53H671.172Z" fill="#2B2B28"></path>
<path d="M774.702 136.23H782.732V177.61H774.522L773.812 171.26C772.402 173.55 770.462 175.41 767.992 176.64C765.522 177.88 762.702 178.49 759.702 178.49C756.172 178.49 753.002 177.7 750.002 175.93C747.002 174.25 744.532 171.78 742.762 168.52C740.912 165.26 740.022 161.37 740.022 156.96C740.022 152.55 740.902 148.67 742.762 145.4C744.522 142.14 747.002 139.66 750.002 137.9C753.002 136.22 756.182 135.34 759.702 135.34C762.702 135.34 765.522 136.05 767.992 137.28C770.462 138.51 772.402 140.37 773.812 142.66L774.692 136.22L774.702 136.23ZM767.552 168.62C769.402 167.56 770.902 166.06 772.052 164.03C773.202 162.09 773.822 159.71 773.822 156.97C773.822 154.23 773.202 152.03 772.052 150C770.902 148.06 769.402 146.47 767.552 145.41C765.612 144.35 763.672 143.73 761.642 143.73C759.352 143.73 757.322 144.26 755.462 145.32C753.522 146.38 752.022 147.97 750.962 149.91C749.812 151.94 749.282 154.32 749.282 156.97C749.282 161.03 750.432 164.29 752.812 166.68C755.192 169.06 758.102 170.21 761.632 170.21C763.752 170.21 765.692 169.68 767.542 168.62H767.552Z" fill="#2B2B28"></path>
<path d="M823.672 117.53H833.022V177.62H824.642L823.942 171.36C822.532 173.65 820.682 175.42 818.202 176.65C815.732 177.89 812.992 178.5 809.992 178.5C806.552 178.5 803.372 177.71 800.372 175.94C797.372 174.26 794.902 171.79 793.142 168.53C791.372 165.27 790.492 161.38 790.492 156.97C790.492 152.56 791.372 148.68 793.142 145.41C794.902 142.15 797.372 139.67 800.372 137.91C803.372 136.23 806.552 135.35 809.992 135.35C812.902 135.35 815.552 135.97 817.932 137.11C820.312 138.26 822.252 139.93 823.672 142.05V117.52V117.53ZM817.762 168.62C819.612 167.56 821.112 166.06 822.262 164.03C823.322 162.09 823.942 159.71 823.942 156.97C823.942 154.23 823.322 151.94 822.262 149.91C821.112 147.97 819.612 146.38 817.762 145.32C815.912 144.26 813.972 143.73 811.852 143.73C808.322 143.73 805.502 144.97 803.202 147.35C800.912 149.73 799.762 152.91 799.762 156.97C799.762 161.03 800.912 164.29 803.202 166.68C805.492 169.06 808.322 170.21 811.852 170.21C813.972 170.21 815.912 169.68 817.762 168.62Z" fill="#2B2B28"></path>
<path d="M882.082 160.32H850.322C850.852 163.5 852.262 165.97 854.382 167.73C856.502 169.49 859.062 170.38 862.062 170.38C866.912 170.38 870.272 168.7 872.032 165.17H881.122C879.882 169.32 877.502 172.58 874.062 174.96C870.532 177.34 866.562 178.49 862.152 178.49C858.092 178.49 854.392 177.61 851.212 175.75C848.032 173.99 845.472 171.43 843.712 168.16C841.952 164.9 841.062 161.19 841.062 156.95C841.062 152.71 841.942 149.1 843.712 145.83C845.482 142.57 848.032 140.01 851.212 138.15C854.392 136.3 858.002 135.33 862.062 135.33C865.762 135.33 869.122 136.3 872.212 138.15C875.302 140.09 877.772 142.65 879.532 145.91C881.292 149.26 882.182 152.88 882.182 156.94C882.182 158.35 882.092 159.41 882.092 160.29L882.082 160.32ZM854.372 146.12C852.252 147.88 850.932 150.27 850.312 153.27H872.992C872.642 150.62 871.492 148.33 869.462 146.39C867.342 144.45 864.872 143.48 862.052 143.48C859.052 143.48 856.492 144.36 854.372 146.13V146.12Z" fill="#2B2B28"></path>
<path d="M946.662 160.32H914.902C915.432 163.5 916.842 165.97 918.962 167.73C921.082 169.49 923.642 170.38 926.642 170.38C931.492 170.38 934.852 168.7 936.612 165.17H945.702C944.462 169.32 942.082 172.58 938.642 174.96C935.112 177.34 931.142 178.49 926.732 178.49C922.672 178.49 918.972 177.61 915.792 175.75C912.612 173.99 910.052 171.43 908.292 168.16C906.522 164.9 905.642 161.19 905.642 156.95C905.642 152.71 906.522 149.1 908.292 145.83C910.052 142.57 912.612 140.01 915.792 138.15C918.972 136.3 922.582 135.33 926.642 135.33C930.352 135.33 933.702 136.3 936.792 138.15C939.882 140.09 942.352 142.65 944.112 145.91C945.882 149.26 946.762 152.88 946.762 156.94C946.762 158.35 946.672 159.41 946.672 160.29L946.662 160.32ZM918.962 146.12C916.842 147.88 915.522 150.27 914.902 153.27H937.582C937.232 150.62 936.082 148.33 934.052 146.39C931.932 144.45 929.462 143.48 926.642 143.48C923.642 143.48 921.082 144.36 918.962 146.13V146.12Z" fill="#2B2B28"></path>
<path d="M985.702 136.23H993.732V177.61H985.522L984.812 171.26C983.402 173.55 981.462 175.41 978.992 176.64C976.522 177.88 973.702 178.49 970.702 178.49C967.172 178.49 964.002 177.7 961.002 175.93C958.002 174.25 955.532 171.78 953.762 168.52C951.912 165.26 951.022 161.37 951.022 156.96C951.022 152.55 951.902 148.67 953.762 145.4C955.532 142.14 958.002 139.66 961.002 137.9C964.002 136.22 967.182 135.34 970.702 135.34C973.702 135.34 976.522 136.05 978.992 137.28C981.462 138.51 983.402 140.37 984.812 142.66L985.692 136.22L985.702 136.23ZM978.552 168.62C980.402 167.56 981.902 166.06 983.052 164.03C984.202 162.09 984.822 159.71 984.822 156.97C984.822 154.23 984.202 152.03 983.052 150C981.902 148.06 980.402 146.47 978.552 145.41C976.612 144.35 974.672 143.73 972.642 143.73C970.352 143.73 968.322 144.26 966.462 145.32C964.522 146.38 963.022 147.97 961.962 149.91C960.812 151.94 960.282 154.32 960.282 156.97C960.282 161.03 961.432 164.29 963.812 166.68C966.192 169.06 969.102 170.21 972.632 170.21C974.752 170.21 976.692 169.68 978.542 168.62H978.552Z" fill="#2B2B28"></path>
<path d="M1007.32 174.79C1004.23 172.32 1002.56 168.97 1002.38 164.91H1011.47C1011.65 166.85 1012.44 168.26 1013.85 169.32C1015.26 170.38 1016.94 170.91 1018.88 170.91C1020.82 170.91 1022.41 170.56 1023.47 169.67C1024.53 168.88 1025.06 167.82 1025.06 166.58C1025.06 165.17 1024.36 164.02 1023.03 163.23C1021.71 162.52 1019.68 161.73 1016.85 160.85C1014.03 160.06 1011.64 159.17 1009.88 158.29C1008.03 157.41 1006.44 156.17 1005.2 154.41C1003.88 152.73 1003.26 150.44 1003.26 147.62C1003.26 145.5 1003.79 143.56 1004.94 141.62C1006.09 139.77 1007.76 138.27 1010.06 137.12C1012.27 135.97 1014.91 135.36 1017.91 135.36C1022.23 135.36 1025.76 136.51 1028.59 138.8C1031.33 141.09 1032.91 144.36 1033.36 148.42H1024.27C1023.92 146.74 1023.21 145.42 1022.15 144.45C1021.09 143.48 1019.68 142.95 1017.91 142.95C1016.14 142.95 1014.91 143.39 1013.85 144.27C1012.79 145.15 1012.26 146.3 1012.26 147.62C1012.26 149.12 1012.88 150.27 1014.2 150.97C1015.52 151.76 1017.55 152.56 1020.38 153.26C1023.2 154.14 1025.5 154.94 1027.35 155.82C1029.2 156.7 1030.79 158.03 1032.11 159.79C1033.43 161.55 1034.14 163.76 1034.14 166.58C1034.14 170.11 1032.64 173.02 1029.73 175.23C1026.73 177.44 1023.11 178.49 1018.88 178.49C1014.2 178.49 1010.32 177.25 1007.32 174.78V174.79Z" fill="#2B2B28"></path>
<path d="M1050.17 177.61H1040.91V136.23H1050.17V177.61Z" fill="#2B2B28"></path>
<path d="M1098.06 160.32H1066.3C1066.83 163.5 1068.24 165.97 1070.36 167.73C1072.48 169.49 1075.04 170.38 1078.04 170.38C1082.89 170.38 1086.25 168.7 1088.01 165.17H1097.1C1095.87 169.32 1093.48 172.58 1090.04 174.96C1086.51 177.34 1082.54 178.49 1078.13 178.49C1074.07 178.49 1070.36 177.61 1067.19 175.75C1064.01 173.99 1061.45 171.43 1059.69 168.16C1057.92 164.9 1057.04 161.19 1057.04 156.95C1057.04 152.71 1057.92 149.1 1059.69 145.83C1061.45 142.57 1064.01 140.01 1067.19 138.15C1070.37 136.3 1073.98 135.33 1078.04 135.33C1081.75 135.33 1085.1 136.3 1088.19 138.15C1091.28 140.09 1093.75 142.65 1095.51 145.91C1097.28 149.26 1098.16 152.88 1098.16 156.94C1098.16 158.35 1098.07 159.41 1098.07 160.29L1098.06 160.32ZM1070.35 146.12C1068.23 147.88 1066.91 150.27 1066.29 153.27H1088.97C1088.62 150.62 1087.47 148.33 1085.44 146.39C1083.32 144.45 1080.85 143.48 1078.03 143.48C1075.03 143.48 1072.47 144.36 1070.35 146.13V146.12Z" fill="#2B2B28"></path>
<path d="M1104.98 152.2C1104.98 147.08 1106.39 143.02 1109.3 139.94C1112.21 136.94 1116.18 135.35 1121.12 135.35C1122.53 135.35 1124.21 135.61 1126.06 135.97V144.44C1125.53 144.44 1124.47 144.35 1122.88 144.35C1119.97 144.35 1117.76 145.14 1116.35 146.56C1114.94 148.06 1114.23 150.44 1114.23 153.8V177.62H1104.97V152.21L1104.98 152.2Z" fill="#2B2B28"></path>
<path d="M1040.34 119.62C1040.34 118.47 1041.28 117.53 1042.43 117.53H1048.67C1049.82 117.53 1050.76 118.47 1050.76 119.62V125.86C1050.76 127.01 1049.82 127.95 1048.67 127.95H1042.43C1041.28 127.95 1040.34 127.01 1040.34 125.86V119.62Z" fill="#2B2B28"></path>
<path d="M263.652 128.27C263.652 113.65 275.512 101.79 290.132 101.79H305.772V120.36H290.132C285.762 120.36 282.222 123.9 282.222 128.27V198.34H263.652V128.27Z" fill="#2B2B28"></path>
<path d="M232.842 172.22C232.842 169.12 230.942 166.33 228.062 165.19L195.162 152.2C185.192 148.26 178.642 138.63 178.642 127.91C178.642 113.49 190.332 101.8 204.762 101.8H248.412V120.37H204.762C200.592 120.37 197.212 123.75 197.212 127.92C197.212 131.02 199.102 133.8 201.982 134.94L234.882 147.93C244.862 151.87 251.412 161.5 251.412 172.23C251.412 186.66 239.712 198.36 225.282 198.36H181.642V179.79H225.282C229.452 179.79 232.842 176.41 232.842 172.23V172.22Z" fill="#2B2B28"></path>
<path fill-rule="evenodd" clip-rule="evenodd" d="M93.2119 162.5C92.6219 161.07 93.7319 159.56 95.2819 159.56L170.952 159.59C171.552 156.51 171.862 153.32 171.862 150.07C171.862 122.68 149.662 100.48 122.272 100.48C98.8019 100.47 77.8119 117.29 73.9619 139.86C73.7819 140.94 74.6219 141.9 75.7219 141.9L87.3519 141.95C88.9619 141.95 90.2619 143.27 90.2619 144.88V155.24C90.2619 156.86 88.9419 158.17 87.3219 158.17L75.7419 158.12C74.6419 158.12 73.7819 159.08 73.9719 160.17C77.9219 182.78 98.7719 199.66 122.282 199.66C139.852 199.66 155.292 190.52 164.102 176.74L148.382 167.67C142.722 176.04 133.142 181.54 122.282 181.54C109.992 181.54 97.8819 173.81 93.2119 162.49V162.5ZM93.2119 137.63C92.6219 139.07 93.7319 140.57 95.2819 140.57H152.292C148.262 127.83 136.352 118.59 122.272 118.59C109.582 118.59 97.8219 126.46 93.2119 137.63Z" fill="#2B2B28"></path>
</g>
<defs>
<clipPath id="clip0_7440_10710">

</clipPath>
</defs>
</svg>